<?xml version="1.0" encoding="utf-8"?>
<!-- Generator: Adobe Illustrator 15.0.0, SVG Export Plug-In . SVG Version: 6.00 Build 0)  -->
<!DOCTYPE svg PUBLIC "-//W3C//DTD SVG 1.1//EN" "http://www.w3.org/Graphics/SVG/1.1/DTD/svg11.dtd">
<svg version="1.1" id="Calque_1" xmlns="http://www.w3.org/2000/svg" xmlns:xlink="http://www.w3.org/1999/xlink" x="0px" y="0px"
	 width="24px" height="24px" viewBox="0 0 24 24" enable-background="new 0 0 24 24" xml:space="preserve">
<title>facebook</title>
<path d="M21.75,0H2.25C1.013,0,0,1.013,0,2.25v19.5C0,22.986,1.013,24,2.25,24h19.5c1.236,0,2.25-1.014,2.25-2.25V2.25
	C24,1.013,22.986,0,21.75,0z"/>
<path fill="#FFFFFF" d="M12,24V13.5H9v-3h3V9c0-2.48,2.02-4.5,4.5-4.5h3v3h-3C15.675,7.5,15,8.175,15,9v1.5h4.5l-0.75,3H15V24H12z"
	/>
</svg>
