<?xml version="1.0" encoding="utf-8"?>
<!-- Generator: Adobe Illustrator 15.0.0, SVG Export Plug-In . SVG Version: 6.00 Build 0)  -->
<!DOCTYPE svg PUBLIC "-//W3C//DTD SVG 1.1//EN" "http://www.w3.org/Graphics/SVG/1.1/DTD/svg11.dtd">
<svg version="1.1" id="Calque_1" xmlns="http://www.w3.org/2000/svg" xmlns:xlink="http://www.w3.org/1999/xlink" x="0px" y="0px"
	 width="24px" height="24px" viewBox="0 0 24 24" enable-background="new 0 0 24 24" xml:space="preserve">
<circle fill="#25D366" cx="12" cy="12" r="12"/>
<path fill="#FFFFFF" d="M10.032,13.124c0.697,0.932,1.708,1.493,2.774,1.646c1.067,0.155,2.194-0.099,3.128-0.796
	c0.167-0.126,0.326-0.264,0.46-0.399l2.104-2.104c0.817-0.846,1.21-1.933,1.191-3.011c-0.019-1.078-0.448-2.151-1.287-2.959
	c-0.823-0.795-1.889-1.189-2.95-1.183c-1.048,0.006-2.097,0.401-2.907,1.183L11.329,6.71c-0.275,0.273-0.277,0.719-0.002,0.994
	C11.6,7.978,12.045,7.98,12.32,7.707l1.201-1.194c0.541-0.522,1.239-0.785,1.939-0.79c0.71-0.004,1.416,0.258,1.967,0.789
	c0.559,0.54,0.845,1.253,0.857,1.973s-0.249,1.444-0.78,1.993l-2.111,2.112c-0.08,0.081-0.186,0.173-0.301,0.26
	c-0.621,0.465-1.371,0.634-2.084,0.531c-0.714-0.104-1.386-0.477-1.851-1.099c-0.232-0.311-0.672-0.374-0.984-0.142
	C9.862,12.373,9.799,12.813,10.032,13.124L10.032,13.124z M13.968,10.876c-0.697-0.932-1.707-1.494-2.774-1.647
	s-2.195,0.1-3.128,0.797c-0.167,0.126-0.326,0.264-0.46,0.399l-2.104,2.105c-0.817,0.846-1.21,1.933-1.192,3.011
	c0.018,1.078,0.449,2.151,1.287,2.959c0.824,0.796,1.889,1.189,2.951,1.183c1.048-0.006,2.097-0.4,2.907-1.183l1.21-1.211
	c0.275-0.274,0.275-0.719,0-0.994c-0.274-0.272-0.719-0.274-0.993,0l-1.192,1.194c-0.541,0.521-1.238,0.785-1.939,0.789
	c-0.709,0.005-1.417-0.258-1.967-0.789c-0.559-0.539-0.845-1.253-0.857-1.973s0.25-1.443,0.78-1.993l2.111-2.111
	c0.081-0.082,0.185-0.174,0.301-0.26c0.622-0.465,1.371-0.633,2.084-0.531s1.385,0.476,1.85,1.098
	c0.231,0.311,0.673,0.375,0.984,0.142C14.138,11.627,14.201,11.188,13.968,10.876z"/>
</svg>
