<?xml version="1.0" encoding="utf-8"?>
<!-- Generator: Adobe Illustrator 15.0.0, SVG Export Plug-In . SVG Version: 6.00 Build 0)  -->
<!DOCTYPE svg PUBLIC "-//W3C//DTD SVG 1.1//EN" "http://www.w3.org/Graphics/SVG/1.1/DTD/svg11.dtd">
<svg version="1.1" id="Calque_1" xmlns="http://www.w3.org/2000/svg" xmlns:xlink="http://www.w3.org/1999/xlink" x="0px" y="0px"
	 width="24px" height="24px" viewBox="0 0 24 24" enable-background="new 0 0 24 24" xml:space="preserve">
<path fill="#25D366" d="M20.461,3.488C18.216,1.238,15.23,0,12.047,0C5.494,0,0.16,5.334,0.16,11.892
	c0,2.094,0.548,4.144,1.589,5.944L0.061,24l6.305-1.654c1.739,0.946,3.694,1.447,5.681,1.447h0.005l0,0
	c6.554,0,11.892-5.334,11.892-11.892C23.943,8.723,22.706,5.737,20.461,3.488L20.461,3.488z"/>
<path fill="#FFFFFF" d="M17.63,14.461c-0.307-0.156-1.824-0.899-2.106-1.001c-0.282-0.103-0.486-0.156-0.694,0.154
	c-0.204,0.306-0.797,1.003-0.977,1.212c-0.181,0.204-0.36,0.232-0.667,0.077c-0.306-0.157-1.302-0.481-2.479-1.532
	c-0.914-0.816-1.535-1.827-1.715-2.135c-0.181-0.306-0.021-0.476,0.136-0.627c0.141-0.135,0.306-0.359,0.46-0.54
	c0.156-0.178,0.205-0.306,0.307-0.515C9.996,9.351,9.947,9.17,9.87,9.016C9.792,8.86,9.175,7.343,8.922,6.726
	C8.674,6.123,8.416,6.205,8.227,6.196c-0.178-0.01-0.383-0.01-0.587-0.01S7.101,6.265,6.818,6.57
	c-0.282,0.306-1.08,1.055-1.08,2.572s1.103,2.979,1.259,3.189c0.156,0.204,2.172,3.321,5.265,4.651
	c0.734,0.316,1.308,0.507,1.754,0.652c0.739,0.233,1.409,0.198,1.94,0.121c0.593-0.087,1.823-0.744,2.079-1.464
	c0.258-0.719,0.258-1.337,0.18-1.462c-0.072-0.136-0.276-0.215-0.588-0.37L17.63,14.461z"/>
</svg>
